<svg width="27" height="26" viewBox="0 0 27 26" fill="none" xmlns="http://www.w3.org/2000/svg">
<path d="M19.1859 13.5786C19.1758 11.9136 19.9604 10.6587 21.5447 9.7334C20.6586 8.5127 19.318 7.84131 17.5508 7.71191C15.8775 7.58496 14.0469 8.64941 13.3766 8.64941C12.6682 8.64941 11.0482 7.75586 9.77363 7.75586C7.14316 7.79492 4.34766 9.77246 4.34766 13.7959C4.34766 14.9849 4.57363 16.2129 5.02559 17.4775C5.62988 19.1426 7.8084 23.2222 10.0809 23.1563C11.2691 23.1294 12.1096 22.3457 13.6559 22.3457C15.1564 22.3457 15.9334 23.1563 17.2588 23.1563C19.5516 23.1245 21.5219 19.416 22.0957 17.7461C19.0209 16.3521 19.1859 13.6641 19.1859 13.5786V13.5786ZM16.5174 6.13232C17.8047 4.6626 17.6879 3.32471 17.6498 2.84375C16.5123 2.90723 15.1971 3.58838 14.448 4.42578C13.6229 5.32422 13.1379 6.43506 13.242 7.6875C14.4709 7.77783 15.5932 7.16992 16.5174 6.13232V6.13232Z" fill="#313131"/>
</svg>
