<svg width="28" height="28" viewBox="0 0 28 28" fill="none" xmlns="http://www.w3.org/2000/svg">
<path d="M24.6328 11.7962H23.7266V11.7495H13.6016V16.2495H19.9595C19.0319 18.8691 16.5395 20.7495 13.6016 20.7495C9.87388 20.7495 6.85156 17.7272 6.85156 13.9995C6.85156 10.2718 9.87388 7.24951 13.6016 7.24951C15.3223 7.24951 16.8877 7.89864 18.0796 8.95895L21.2617 5.77689C19.2524 3.90432 16.5648 2.74951 13.6016 2.74951C7.38875 2.74951 2.35156 7.7867 2.35156 13.9995C2.35156 20.2123 7.38875 25.2495 13.6016 25.2495C19.8144 25.2495 24.8516 20.2123 24.8516 13.9995C24.8516 13.2452 24.7739 12.5089 24.6328 11.7962Z" fill="#FFC107"/>
<path d="M3.64844 8.7632L7.34462 11.4739C8.34475 8.99776 10.7669 7.24951 13.6013 7.24951C15.322 7.24951 16.8874 7.89864 18.0794 8.95895L21.2614 5.77689C19.2522 3.90432 16.5646 2.74951 13.6013 2.74951C9.28019 2.74951 5.53281 5.18907 3.64844 8.7632Z" fill="#FF3D00"/>
<path d="M13.6013 25.2494C16.5071 25.2494 19.1475 24.1373 21.1438 22.3289L17.6619 19.3825C16.4945 20.2704 15.0679 20.7506 13.6013 20.7494C10.6751 20.7494 8.19056 18.8836 7.25456 16.2798L3.58594 19.1063C5.44781 22.7497 9.22894 25.2494 13.6013 25.2494Z" fill="#4CAF50"/>
<path d="M24.6328 11.796H23.7266V11.7493H13.6016V16.2493H19.9595C19.5158 17.496 18.7166 18.5854 17.6606 19.383L17.6622 19.3818L21.1441 22.3282C20.8978 22.5521 24.8516 19.6243 24.8516 13.9993C24.8516 13.245 24.7739 12.5086 24.6328 11.796Z" fill="#1976D2"/>
</svg>
