<svg width="119" height="164" viewBox="0 0 119 164" fill="none" xmlns="http://www.w3.org/2000/svg">
<path d="M50.0112 157.701C47.6978 155.536 45.4171 153.442 43.6251 150.815C39.9108 145.455 39.1288 139.457 40.2692 132.997C41.5724 125.721 44.4397 119.119 47.2091 112.446C50.4021 104.744 53.7907 97.1123 55.1917 88.7356C56.2995 82.2402 56.0062 75.9222 53.2042 69.8882C53.0739 69.5687 53.0413 69.1783 52.4874 69.0718C52.911 71.2015 53.4323 73.2956 53.7581 75.3898C54.6378 81.0689 53.6278 86.5705 52.1616 92.0011C49.9134 100.378 46.2968 108.115 43.1038 116.102C40.8882 121.639 38.7704 127.176 37.9558 133.21C37.6626 135.375 37.6952 137.576 37.7604 139.741C37.7604 140.238 38.0862 140.912 37.5974 141.196C37.1087 141.48 36.7177 140.877 36.3593 140.557C29.1913 134.701 23.913 127.247 20.8503 118.054C15.7024 102.543 16.9731 87.5288 25.086 73.5796C29.5823 65.8418 35.9684 59.9853 43.3645 55.584C49.7179 51.8216 56.5927 49.9049 63.7933 49.9049C71.9062 49.9049 79.563 52.1411 86.6658 56.4359C96.3753 62.2924 103.869 70.5626 108.659 81.5303C114.36 94.5212 114.849 107.796 109.995 121.213C105.107 134.63 96.2775 144.568 85.8187 152.98C84.548 154.01 83.3425 155.145 82.0718 156.246C82.0392 156.281 82.0718 156.352 82.1044 156.423C101.393 150.176 120.421 126.643 118.629 96.9348C116.446 60.9081 87.6107 37.5174 58.1567 41.1024C26.0634 45.0067 5.99298 76.2416 9.57699 107.441C11.5645 124.656 19.0909 138.392 31.8305 148.685C37.3042 153.087 43.2993 156.317 50.0112 157.701Z" fill="#87CEFF"/>
<path d="M88.2281 88.4163C87.2507 88.7357 86.2732 89.1971 85.2958 89.4101C83.7318 89.6941 83.4386 89.2681 83.5689 87.5289C84.1228 79.2588 83.0476 71.379 78.812 64.2802C77.3783 61.8666 75.456 60.0209 72.6214 58.9561C73.6314 62.1505 74.6415 65.0611 75.2605 68.0781C77.2154 77.6615 76.0751 86.8545 72.4585 95.7636C69.4284 103.253 65.2904 110.068 61.7064 117.238C57.8292 125.011 54.8968 133.068 55.1249 142.155C55.19 144.923 55.4833 147.692 56.1349 150.389C56.2001 150.709 56.5585 151.064 56.1023 151.241C55.7114 151.419 55.5484 150.993 55.4181 150.673C54.3103 148.118 53.7239 145.42 53.4632 142.651C52.5183 132.429 55.19 123.13 59.7841 114.363C60.0448 113.866 60.3054 113.369 60.5986 112.765C58.7415 113.653 57.2101 115.143 55.3855 118.338C50.1724 127.495 47.7939 137.398 49.2601 148.118C50.4982 157.169 56.4933 162.954 64.8669 163.593C66.496 163.735 68.1251 163.664 69.7542 163.629C70.1777 163.629 70.6339 163.735 70.8294 163.203C63.4007 160.115 59.4257 154.045 58.6111 145.633C57.9595 139.067 61.4784 134.985 67.5386 134.452C70.0474 134.239 72.5236 134.452 74.9673 135.091C77.1177 135.624 79.2681 135.766 81.3859 134.914C84.2531 133.742 85.2632 131.542 84.5138 128.312C84.2531 127.211 83.8947 126.182 83.6667 125.082C83.2431 123.059 83.797 122.065 85.6216 121.568C87.6417 121 87.6742 121 86.4687 119.296C85.9148 118.515 85.9474 118.018 86.8923 117.806C88.5865 117.415 88.5214 116.421 87.8046 115.072C87.5113 114.505 87.2507 113.937 87.0226 113.333C86.1755 110.849 86.3384 110.245 88.3585 108.754C88.8146 108.435 89.2382 108.08 89.6617 107.69C91.1279 106.234 91.1605 104.957 89.6292 103.537C88.6843 102.649 87.6417 101.869 86.5339 101.265C84.4486 100.129 83.6015 98.2482 83.406 95.8346C83.3734 95.4086 83.3408 95.0182 83.3083 94.5923C83.3083 93.4565 83.0476 92.2496 83.3408 91.2558C83.7318 89.9425 85.1654 90.7589 86.0451 90.333C86.9249 89.907 87.8697 89.5876 88.4888 88.6647C88.4236 88.6292 88.3259 88.5228 88.2281 88.4163Z" fill="#87CEFF"/>
<path d="M23.7824 24.7393C28.2787 26.23 31.9605 28.9986 34.6322 33.2579C34.7625 33.4709 35.0232 33.6483 35.2187 33.8258C33.8828 27.8983 31.8301 22.4676 26.4541 19.4861C23.7498 17.9954 20.9152 18.5278 18.1457 18.9892C15.1482 19.5216 12.3136 19.0602 9.57668 17.7114C9.38118 17.6049 9.18569 17.6049 8.95762 17.5339C8.92504 17.5339 8.85988 17.5694 8.66439 17.6759C9.38119 21.6513 11.0754 25.1652 13.4539 28.2532C17.4941 33.5063 22.6746 36.5588 28.8652 37.6947C31.0808 38.0851 33.166 38.866 35.3164 40.4277C34.6322 36.6298 33.3289 33.6128 31.1785 31.0217C29.0933 28.5017 26.5193 26.7979 23.7824 25.3072C22.8375 24.9877 21.8601 24.6683 20.7849 23.8874C22.023 23.9939 22.9353 24.2069 23.7824 24.7393ZM20.1332 23.7454C20.231 23.7454 20.2961 23.7454 20.3939 23.7099C20.3613 23.7454 20.3287 23.7809 20.2636 23.7809C20.1984 23.8164 20.1658 23.7454 20.1332 23.7454Z" fill="#87CEFF"/>
<path d="M29.031 43.6578C25.6099 41.4926 22.0259 39.8599 18.1487 39.2565C14.5321 38.6886 11.6649 40.1084 9.54703 43.3383C9.0583 44.0482 8.60216 44.7936 8.14601 45.5035C6.38659 48.414 4.39909 51.0051 0.815077 52.1409C7.85278 56.2227 14.6298 58.7073 22.0585 54.448C25.7403 52.3539 29.031 49.4788 33.5273 48.3075C27.3042 44.4387 21.3091 44.2612 15.0534 46.6748C19.2565 43.1254 24.1112 43.3028 29.031 43.6578Z" fill="#87CEFF"/>
<path d="M40.2689 -9.98179e-07C35.2839 8.30565 33.2638 16.5758 37.3691 25.6978C38.6398 28.5019 40.0083 31.2704 39.6173 34.6779C41.8329 32.4062 43.3316 29.7087 44.2765 26.6207C45.2214 23.4262 44.7327 20.2672 44.472 17.0727C46.6876 21.758 46.7527 26.5497 44.9281 31.6609C51.5097 23.2842 51.3142 16.2564 45.9056 9.65443C44.7652 8.23466 43.5923 6.85039 42.5171 5.35963C41.4419 3.86887 40.6599 2.23614 40.2689 -9.98179e-07Z" fill="#87CEFF"/>
<path d="M61.645 31.0929C59.2013 34.6778 55.8454 36.8429 51.8378 38.1917C57.7677 40.5343 64.2515 38.7241 66.7278 31.9447C67.5097 29.7796 67.9333 27.5434 68.2591 25.2718C68.7804 21.7224 69.1714 20.835 71.0937 17.9245C68.5198 17.747 66.1739 18.3149 63.8606 18.8474C58.9407 19.9832 55.3567 23.0357 52.9782 27.8629C51.5446 30.8089 49.8177 33.471 46.6899 35.3167C51.121 36.2395 54.8354 35.4587 58.289 32.9386C59.5923 31.9802 60.6675 30.7024 61.8405 29.5666C62.1663 28.7503 62.6224 28.0404 63.4696 27.6499C63.0134 28.9277 62.655 30.2055 61.645 31.0929Z" fill="#87CEFF"/>
<path d="M61.6442 31.093C62.6542 30.2056 63.0126 28.9278 63.4688 27.6855C62.6216 28.0405 62.1655 28.7504 61.8396 29.6022C61.7745 30.0992 61.7093 30.5961 61.6442 31.093Z" fill="#87CEFF"/>
<path d="M23.7812 24.7394C22.9341 24.207 22.0544 23.994 20.7837 23.9585C21.8589 24.7749 22.8364 25.0943 23.7812 25.3783C23.7812 25.1298 23.7812 24.9523 23.7812 24.7394Z" fill="#87CEFF"/>
<path d="M88.5218 88.7357C88.6196 88.5937 88.7499 88.4162 88.8477 88.2742C88.587 88.0968 88.3915 88.1678 88.2286 88.4517C88.3264 88.5227 88.4241 88.6292 88.5218 88.7357Z" fill="#87CEFF"/>
<path d="M35.1803 33.8259L35.2812 33.9358L35.1803 33.8625L35.1803 33.8259Z" fill="#87CEFF"/>
<path d="M20.1339 23.746C20.1664 23.7826 20.2316 23.8192 20.2642 23.8192C20.2968 23.8192 20.3619 23.7826 20.3945 23.746C20.2968 23.7094 20.199 23.746 20.1339 23.746Z" fill="#87CEFF"/>
</svg>
