<svg width="331" height="476" viewBox="0 0 331 476" fill="none" xmlns="http://www.w3.org/2000/svg">
<path d="M142.699 443.624L142.699 443.623C147.135 420.854 156.55 400.063 165.966 379.268C166.618 377.828 167.27 376.388 167.921 374.948C168.954 372.657 169.992 370.368 171.03 368.08C181.647 344.685 192.236 321.35 196.855 295.96L196.855 295.959C200.862 274.363 199.794 253.402 189.687 233.395L189.682 233.383L189.677 233.372C189.593 233.184 189.515 232.975 189.443 232.784C189.409 232.693 189.376 232.606 189.345 232.527C189.24 232.26 189.134 232.027 188.995 231.821C188.826 231.57 188.591 231.335 188.2 231.159C188.684 233.355 189.199 235.548 189.714 237.737C190.792 242.32 191.866 246.888 192.637 251.441L192.637 251.441C195.849 270.502 192.157 288.945 186.83 307.084C180.649 328.254 171.619 348.213 162.579 368.196C159.667 374.631 156.755 381.069 153.936 387.55L153.477 387.351L153.936 387.55C145.894 406.026 138.234 424.444 135.289 444.502C134.232 451.677 134.348 458.979 134.584 466.202L134.585 466.21L134.585 466.218C134.585 466.582 134.65 466.992 134.734 467.454C134.744 467.513 134.755 467.573 134.767 467.633C134.839 468.03 134.918 468.459 134.952 468.871C134.992 469.347 134.978 469.854 134.802 470.323C134.62 470.81 134.277 471.222 133.729 471.514C133.187 471.804 132.652 471.874 132.138 471.782C131.637 471.692 131.184 471.453 130.782 471.172C130.381 470.89 130.003 470.546 129.658 470.221C129.589 470.156 129.521 470.091 129.454 470.028C129.184 469.772 128.936 469.536 128.691 469.335C102.609 449.743 83.3936 424.799 72.2442 394.034L72.2441 394.034C53.5107 342.145 58.1345 291.892 87.6639 245.217C104.037 219.316 127.284 199.723 154.183 185.008L154.184 185.007C177.315 172.415 202.347 165.999 228.564 165.999C258.095 165.999 285.967 173.483 311.816 187.851C347.138 207.437 374.411 235.103 391.842 271.796C412.594 315.261 414.374 359.694 396.704 404.586L396.703 404.587C378.919 449.468 346.796 482.694 308.798 510.789C305.866 512.973 303.04 515.291 300.178 517.64C298.791 518.778 297.396 519.923 295.976 521.064C365.394 499.792 433.528 421.784 427.075 323.437C419.172 203.539 314.787 125.698 208.163 137.628L208.107 137.131L208.163 137.628C91.9798 150.622 19.3227 254.567 32.297 358.395C39.4928 415.69 66.7344 461.396 112.862 495.658C132.174 509.933 153.262 520.494 176.783 525.282C168.89 518.495 161.138 511.776 154.969 503.464C141.387 485.448 138.539 465.284 142.699 443.624Z" stroke="#510228"/>
<path d="M261.417 197.514C271.056 201.073 277.669 207.016 282.652 214.728L282.653 214.728C297.947 238.293 301.842 264.462 299.838 291.982C299.719 293.442 299.693 294.66 299.822 295.647C299.951 296.635 300.241 297.446 300.802 298.035C301.369 298.63 302.147 298.931 303.112 299.029C304.069 299.127 305.252 299.029 306.686 298.79L306.693 298.789L306.701 298.787C308.509 298.425 310.308 297.854 312.086 297.245C312.576 297.078 313.064 296.907 313.55 296.738C314.741 296.322 315.921 295.91 317.104 295.547C317.213 295.654 317.322 295.759 317.426 295.854C317.446 295.872 317.466 295.89 317.486 295.908C315.691 298.121 313.222 299.168 310.634 300.266C310.132 300.479 309.626 300.694 309.12 300.919C308.416 301.232 307.575 301.328 306.635 301.34C306.19 301.346 305.737 301.334 305.272 301.321L305.202 301.319C304.718 301.306 304.222 301.294 303.739 301.305C302.778 301.328 301.802 301.445 300.961 301.881C300.097 302.33 299.424 303.092 299.033 304.301L299.032 304.302C298.471 306.051 298.447 307.962 298.551 309.87C298.589 310.572 298.644 311.266 298.698 311.956C298.795 313.177 298.89 314.383 298.89 315.586L298.89 315.607L298.892 315.628C298.951 316.339 299.01 317.021 299.069 317.702L299.069 317.702C299.129 318.383 299.188 319.063 299.247 319.772L299.247 319.775C299.606 323.851 300.566 327.511 302.418 330.643C304.274 333.781 307.009 336.361 310.873 338.296C314.852 340.288 318.601 342.869 322.003 345.806L322.006 345.808C324.741 348.14 325.969 350.263 325.969 352.311C325.969 354.363 324.737 356.516 322.118 358.907C320.594 360.198 319.077 361.366 317.448 362.415L317.438 362.421L317.438 362.422C313.79 364.896 311.655 366.73 310.915 369.08C310.177 371.428 310.872 374.163 312.402 378.285L312.405 378.294L312.408 378.302C313.245 380.337 314.2 382.25 315.272 384.159L315.275 384.164C315.916 385.273 316.398 386.286 316.675 387.199C316.951 388.112 317.012 388.892 316.849 389.552C316.536 390.817 315.315 391.903 312.294 392.543C310.565 392.902 309.388 393.548 309.104 394.687C308.966 395.241 309.066 395.829 309.307 396.419C309.549 397.01 309.948 397.642 310.464 398.311M261.417 197.514L310.86 398.006M261.417 197.514C261.95 199.055 262.482 200.577 263.009 202.085C265.991 210.619 268.814 218.699 270.671 227.018L270.671 227.019C277.792 259.107 273.635 289.886 260.471 319.696C253.161 336.306 244.064 351.945 234.976 367.568C230.382 375.467 225.79 383.362 221.432 391.376C207.376 417.28 196.782 444.068 197.606 474.254L197.606 474.255C197.842 483.462 198.903 492.659 201.256 501.614L201.258 501.623L201.26 501.633C201.305 501.835 201.405 502.06 201.537 502.335C201.549 502.361 201.562 502.387 201.575 502.414C201.689 502.651 201.823 502.929 201.902 503.199C201.992 503.505 202.04 503.891 201.85 504.266C201.662 504.634 201.301 504.881 200.834 505.05C200.403 505.227 199.993 505.268 199.611 505.171C199.229 505.074 198.928 504.853 198.691 504.597C198.264 504.137 197.974 503.48 197.755 502.984C197.741 502.954 197.729 502.925 197.716 502.896C193.668 494.31 191.528 485.254 190.578 475.977L190.578 475.976C187.136 441.738 196.874 410.608 213.581 381.298L213.581 381.298C214.312 380.018 215.04 378.742 215.821 377.304C209.795 380.281 204.613 385.197 198.477 395.072C179.61 425.539 171.015 458.46 176.316 494.089C180.774 524.044 202.332 543.178 232.497 545.294L232.502 545.294C237.542 545.698 242.581 545.583 247.65 545.467C248.496 545.448 249.342 545.428 250.189 545.411L250.199 545.411C250.419 545.411 250.665 545.419 250.9 545.427C251.065 545.432 251.225 545.437 251.365 545.439C251.737 545.445 252.07 545.433 252.367 545.376C252.659 545.32 252.901 545.223 253.102 545.067C253.205 544.987 253.305 544.886 253.398 544.755C240.096 539.577 229.841 531.956 222.528 522.141C215.119 512.199 210.747 500.031 209.262 485.926C208.067 474.863 210.692 465.832 216.45 459.341C222.204 452.855 231.03 448.968 242.118 448.072L242.12 448.072C251.276 447.358 260.314 448.072 269.233 450.216C276.987 451.98 284.681 452.436 292.239 449.642C297.364 447.717 300.763 444.972 302.566 441.445C304.371 437.916 304.622 433.521 303.281 428.208C302.868 426.608 302.388 425.053 301.906 423.491C301.839 423.276 301.772 423.06 301.706 422.843C301.159 421.066 300.622 419.274 300.203 417.418M261.417 197.514L300.203 417.418M310.464 398.311L310.86 398.006M310.464 398.311C310.464 398.311 310.464 398.311 310.464 398.311L310.86 398.006M310.464 398.311C311.565 399.742 312.356 400.78 312.826 401.576C313.314 402.402 313.348 402.794 313.252 403.022C313.203 403.14 313.094 403.278 312.856 403.437C312.616 403.597 312.274 403.759 311.803 403.931C310.87 404.271 309.539 404.615 307.73 405.083L307.664 405.1L307.786 405.585M310.86 398.006C315.216 403.665 315.118 403.69 307.883 405.559L307.786 405.585M307.786 405.585L307.661 405.101L307.662 405.1L307.786 405.585ZM300.203 417.418L300.691 417.308L300.203 417.419C300.203 417.419 300.203 417.419 300.203 417.418ZM214.016 381.546C197.343 410.795 187.647 441.821 191.076 475.926C192.022 485.162 194.15 494.162 198.171 502.688L198.202 502.76C198.67 503.816 199.266 505.162 200.654 504.583C201.856 504.153 201.499 503.411 201.123 502.628C200.981 502.333 200.837 502.033 200.772 501.741C198.407 492.741 197.343 483.504 197.106 474.268C196.279 443.952 206.921 417.071 220.992 391.138C225.365 383.096 229.965 375.187 234.563 367.283C243.643 351.675 252.714 336.08 260.014 319.494C273.139 289.771 277.278 259.1 270.183 227.127L214.016 381.546ZM214.016 381.546C214.846 380.09 215.677 378.634 216.587 376.938L214.016 381.546ZM317.883 296.211C317.988 296.081 318.091 295.948 318.191 295.81C318.093 295.761 317.973 295.67 317.842 295.555L317.883 296.211ZM292.414 450.11C302.819 446.202 306.485 438.86 303.765 428.084L253.635 544.311C226.975 533.953 212.698 513.776 209.759 485.873C207.394 463.965 220.165 450.347 242.158 448.571C251.264 447.86 260.25 448.571 269.119 450.702C276.923 452.479 284.727 452.952 292.414 450.11ZM250.864 545.926C252.045 545.965 253.206 546.003 253.876 544.939L216.226 376.555C209.817 379.555 204.428 384.547 198.052 394.809C179.133 425.361 170.501 458.4 175.822 494.162C180.315 524.359 202.073 543.661 232.462 545.793C237.53 546.199 242.598 546.083 247.666 545.967C248.51 545.948 249.355 545.928 250.199 545.911C250.42 545.911 250.642 545.919 250.864 545.926Z" stroke="#510228"/>
<path d="M69.9382 79.6793C69.9603 79.6916 70.0255 79.7219 70.1156 79.7219L70.1156 79.2219L70.1156 78.7219C70.4657 78.7219 70.6314 78.7199 70.9032 78.6292L71.1896 79.0919L72.5199 79.1971C77.0209 79.553 80.4057 80.2668 83.5595 82.076C99.9522 87.0838 113.394 96.38 123.149 110.676L123.149 110.676L123.152 110.681C123.344 110.97 123.649 111.257 124.026 111.561C124.026 111.562 124.027 111.562 124.028 111.563C119.179 92.3789 111.676 75.0662 92.8292 65.4574C83.4466 60.7029 73.6181 62.2131 63.8055 63.721C63.5306 63.7632 63.2556 63.8055 62.9807 63.8476C52.0004 65.64 41.6142 64.0841 31.5972 59.5461L31.5883 59.5421L31.5796 59.5377C31.2852 59.3903 30.9826 59.3118 30.6263 59.2404C30.5454 59.2242 30.4601 59.2082 30.3711 59.1914C30.1201 59.1441 29.8401 59.0914 29.5503 59.0152C29.5258 59.0251 29.4942 59.0387 29.4536 59.0572C29.3567 59.1013 29.2298 59.1632 29.0574 59.2489C31.6817 72.2641 37.753 83.789 46.2582 93.94L46.2584 93.9403C60.8388 111.368 79.5298 121.496 101.887 125.267C109.643 126.524 116.974 128.987 124.491 133.805C121.964 121.759 117.324 112.134 109.83 103.833L109.83 103.832C102.333 95.5035 93.0703 89.8566 83.1719 84.8977C83.0949 84.8737 83.0177 84.8498 82.9405 84.8258C79.5948 83.787 76.0681 82.692 72.2029 80.1114L71.3373 79.5335C71.2113 79.6516 71.0093 79.8059 70.6961 79.8353C70.5912 79.8696 70.482 79.8814 70.3719 79.8682C70.2285 79.851 70.1187 79.7952 70.0502 79.7541C70.0161 79.7336 69.9868 79.7132 69.9682 79.7003C69.9501 79.6876 69.9432 79.6827 69.9382 79.6793ZM69.9382 79.6793C69.929 79.6741 69.9272 79.6721 69.9342 79.6766C69.9355 79.6775 69.9368 79.6783 69.9382 79.6793ZM29.6094 58.9935C29.6107 58.9932 29.6115 58.993 29.6115 58.993L29.6094 58.9935Z" stroke="#510228"/>
<path d="M117.379 160.987C95.3237 148.757 74.0547 148.312 51.8398 156.192L51.366 155.325C66.167 143.835 83.1646 143.943 100.282 145.017C88.4674 138.349 76.1218 133.367 62.8353 131.466L62.8347 131.466C56.3513 130.53 50.565 131.234 45.4595 133.486C40.3528 135.738 35.8965 139.551 32.0959 144.879L32.096 144.879L32.0891 144.889C30.8359 146.562 29.645 148.29 28.4648 150.003C27.9819 150.704 27.5009 151.402 27.0181 152.093C20.8044 161.542 13.7506 170.075 1.29972 174.081C26.4258 187.342 50.5086 195.103 76.8626 181.212L76.8641 181.211C80.7859 179.16 84.5592 176.9 88.371 174.617C91.0577 173.008 93.7635 171.387 96.5539 169.82C102.933 166.238 109.67 162.991 117.379 160.987Z" stroke="#510228"/>
<path d="M158.891 56.7309C166.575 71.6691 167.189 86.9339 161.568 103.093C172.216 90.0274 177.362 78.0023 177.694 66.6849C178.044 54.741 173.034 43.4918 163.276 32.5427L163.273 32.539C162.243 31.3604 161.204 30.1871 160.164 29.0124C157.035 25.4792 153.895 21.9329 150.958 18.1899C147.226 13.4327 144.451 8.23626 142.946 1.29894C125.397 28.5799 118.508 55.6732 133.117 85.5147C133.364 86.0158 133.612 86.5171 133.861 87.0188C138.052 95.4776 142.312 104.077 141.465 114.387C148.904 107.071 153.998 98.4641 157.262 88.6588C160.18 79.5868 159.286 70.61 158.375 61.4502C158.228 59.9732 158.08 58.4915 157.948 57.0038L158.891 56.7309Z" stroke="#510228"/>
<path d="M244.269 84.2377L244.27 84.2359C245.217 78.3078 246.052 74.5565 247.54 71.0631C248.951 67.7533 250.938 64.6978 254.114 60.2513C245.51 59.8507 237.596 61.5279 229.737 63.1934C229.459 63.2524 229.181 63.3113 228.903 63.3701C211.2 67.1274 198.313 77.2134 189.746 93.1948C184.711 102.708 178.651 111.395 167.94 117.585C183.302 120.24 196.239 117.569 208.301 109.478C211.555 107.278 214.395 104.585 217.267 101.862C218.511 100.682 219.761 99.4967 221.054 98.343C222.261 95.5984 223.986 93.144 227.186 91.7885L228.275 91.3269L227.847 92.4298C227.666 92.8966 227.488 93.366 227.31 93.8359C225.892 97.5826 224.461 101.363 221.123 104.084C212.473 115.725 200.715 122.897 186.75 127.441C196.987 130.855 207.573 131.109 216.723 127.939C226.283 124.626 234.301 117.566 238.741 106.394C241.559 99.2208 243.089 91.8027 244.269 84.2377Z" stroke="#510228"/>
<path d="M221.953 98.8976L221.446 102.447C223.858 100.042 225.057 96.9545 226.312 93.7208C226.361 93.596 226.409 93.4709 226.458 93.3457C224.264 94.5508 222.95 96.5189 221.953 98.8976Z" stroke="#510228"/>
<path d="M82.8594 82.833L82.8594 82.8304C80.3726 81.4447 77.7741 80.7581 74.2936 80.5181C77.3001 82.3372 80.1052 83.2388 82.8594 84.0127L82.8594 84.0113L82.8594 84.007L82.8594 84.0028L82.8594 83.9986L82.8594 83.9943L82.8594 83.9901L82.8594 83.9859L82.8594 83.9817L82.8594 83.9775L82.8594 83.9733L82.8594 83.9691L82.8594 83.9649L82.8594 83.9607L82.8594 83.9565L82.8594 83.9523L82.8594 83.9481L82.8594 83.9439L82.8594 83.9397L82.8594 83.9355L82.8594 83.9313L82.8594 83.9272L82.8594 83.923L82.8594 83.9188L82.8594 83.9146L82.8594 83.9105L82.8594 83.9063L82.8594 83.9022L82.8594 83.898L82.8594 83.8938L82.8594 83.8897L82.8594 83.8855L82.8594 83.8814L82.8594 83.8772L82.8594 83.8731L82.8594 83.869L82.8594 83.8648L82.8594 83.8607L82.8594 83.8566L82.8594 83.8524L82.8594 83.8483L82.8594 83.8442L82.8594 83.8401L82.8594 83.8359L82.8594 83.8318L82.8594 83.8277L82.8594 83.8236L82.8594 83.8195L82.8594 83.8154L82.8594 83.8113L82.8594 83.8072L82.8594 83.8031L82.8594 83.799L82.8594 83.7949L82.8594 83.7908L82.8594 83.7867L82.8594 83.7826L82.8594 83.7785L82.8594 83.7744L82.8594 83.7703L82.8594 83.7663L82.8594 83.7622L82.8594 83.7581L82.8594 83.754L82.8594 83.75L82.8594 83.7459L82.8594 83.7418L82.8594 83.7378L82.8594 83.7337L82.8594 83.7296L82.8594 83.7256L82.8594 83.7215L82.8594 83.7175L82.8594 83.7134L82.8594 83.7093L82.8594 83.7053L82.8594 83.7013L82.8594 83.6972L82.8594 83.6932L82.8594 83.6891L82.8594 83.6851L82.8594 83.681L82.8594 83.677L82.8594 83.673L82.8594 83.6689L82.8594 83.6649L82.8594 83.6609L82.8594 83.6568L82.8594 83.6528L82.8594 83.6488L82.8594 83.6448L82.8594 83.6408L82.8594 83.6367L82.8594 83.6327L82.8594 83.6287L82.8594 83.6247L82.8594 83.6207L82.8594 83.6167L82.8594 83.6127L82.8594 83.6086L82.8594 83.6046L82.8594 83.6006L82.8594 83.5966L82.8594 83.5926L82.8594 83.5886L82.8594 83.5846L82.8594 83.5806L82.8594 83.5766L82.8594 83.5726L82.8594 83.5687L82.8594 83.5647L82.8594 83.5607L82.8594 83.5567L82.8594 83.5527L82.8594 83.5487L82.8594 83.5447L82.8594 83.5407L82.8594 83.5368L82.8594 83.5328L82.8594 83.5288L82.8594 83.5248L82.8594 83.5208L82.8594 83.5169L82.8594 83.5129L82.8594 83.5089L82.8594 83.5049L82.8594 83.501L82.8594 83.497L82.8594 83.493L82.8594 83.4891L82.8594 83.4851L82.8594 83.4811L82.8594 83.4772L82.8594 83.4732L82.8594 83.4692L82.8594 83.4653L82.8594 83.4613L82.8594 83.4573L82.8594 83.4534L82.8594 83.4494L82.8594 83.4455L82.8594 83.4415L82.8594 83.4376L82.8594 83.4336L82.8594 83.4297L82.8594 83.4257L82.8594 83.4217L82.8594 83.4178L82.8594 83.4138L82.8594 83.4099L82.8594 83.4059L82.8594 83.402L82.8594 83.398L82.8594 83.3941L82.8594 83.3902L82.8594 83.3862L82.8594 83.3823L82.8594 83.3783L82.8594 83.3744L82.8594 83.3704L82.8594 83.3665L82.8594 83.3625L82.8594 83.3586L82.8594 83.3547L82.8594 83.3507L82.8594 83.3468L82.8594 83.3428L82.8594 83.3389L82.8594 83.335L82.8594 83.331L82.8594 83.3271L82.8594 83.3232L82.8594 83.3192L82.8594 83.3153L82.8594 83.3113L82.8594 83.3074L82.8594 83.3035L82.8594 83.2995L82.8594 83.2956L82.8594 83.2917L82.8594 83.2877L82.8594 83.2838L82.8594 83.2799L82.8594 83.2759L82.8594 83.272L82.8594 83.2681L82.8594 83.2641L82.8594 83.2602L82.8594 83.2563L82.8594 83.2523L82.8594 83.2484L82.8594 83.2445L82.8594 83.2405L82.8594 83.2366L82.8594 83.2327L82.8594 83.2287L82.8594 83.2248L82.8594 83.2209L82.8594 83.217L82.8594 83.213L82.8594 83.2091L82.8594 83.2052L82.8594 83.2012L82.8594 83.1973L82.8594 83.1934L82.8594 83.1894L82.8594 83.1855L82.8594 83.1816L82.8594 83.1776L82.8594 83.1737L82.8594 83.1698L82.8594 83.1658L82.8594 83.1619L82.8594 83.158L82.8594 83.154L82.8594 83.1501L82.8594 83.1462L82.8594 83.1422L82.8594 83.1383L82.8594 83.1344L82.8594 83.1304L82.8594 83.1265L82.8594 83.1225L82.8594 83.1186L82.8594 83.1147L82.8594 83.1107L82.8594 83.1068L82.8594 83.1029L82.8594 83.0989L82.8594 83.095L82.8594 83.091L82.8594 83.0871L82.8594 83.0831L82.8594 83.0792L82.8594 83.0753L82.8594 83.0713L82.8594 83.0674L82.8594 83.0634L82.8594 83.0595L82.8594 83.0555L82.8594 83.0516L82.8594 83.0476L82.8594 83.0437L82.8594 83.0397L82.8594 83.0358L82.8594 83.0318L82.8594 83.0279L82.8594 83.0239L82.8594 83.02L82.8594 83.016L82.8594 83.0121L82.8594 83.0081L82.8594 83.0042L82.8594 83.0002L82.8594 82.9963L82.8594 82.9923L82.8594 82.9883L82.8594 82.9844L82.8594 82.9804L82.8594 82.9765L82.8594 82.9725L82.8594 82.9685L82.8594 82.9646L82.8594 82.9606L82.8594 82.9566L82.8594 82.9527L82.8594 82.9487L82.8594 82.9447L82.8594 82.9407L82.8594 82.9368L82.8594 82.9328L82.8594 82.9288L82.8594 82.9248L82.8594 82.9209L82.8594 82.9169L82.8594 82.9129L82.8594 82.9089L82.8594 82.9049L82.8594 82.901L82.8594 82.897L82.8594 82.893L82.8594 82.889L82.8594 82.885L82.8594 82.881L82.8594 82.877L82.8594 82.873L82.8594 82.869L82.8594 82.865L82.8594 82.861L82.8594 82.857L82.8594 82.853L82.8594 82.849L82.8594 82.845L82.8594 82.841L82.8594 82.837L82.8594 82.833Z" stroke="#510228"/>
<path d="M317.939 295.004C318.047 295.097 318.153 295.195 318.257 295.294C318.338 295.188 318.422 295.081 318.504 294.974L318.506 294.972C318.576 294.882 318.645 294.793 318.713 294.706C318.574 294.676 318.463 294.683 318.371 294.709C318.242 294.745 318.097 294.832 317.939 295.004Z" stroke="#510228"/>
<mask id="path-10-inside-1_3591_231" fill="white">
<path d="M124.723 112.854L125.09 113.22L124.723 112.976L124.723 112.854Z"/>
</mask>
<path d="M124.723 112.854L123.723 112.854L123.723 110.439L125.431 112.146L124.723 112.854ZM125.09 113.22L125.797 112.513L124.535 114.052L125.09 113.22ZM124.723 112.976L124.169 113.808L123.723 113.511L123.723 112.976L124.723 112.976ZM125.431 112.146L125.797 112.513L124.383 113.927L124.016 113.561L125.431 112.146ZM124.535 114.052L124.169 113.808L125.278 112.144L125.645 112.388L124.535 114.052ZM123.723 112.976L123.723 112.854L125.723 112.854L125.723 112.976L123.723 112.976Z" fill="#510228" mask="url(#path-10-inside-1_3591_231)"/>
<mask id="path-12-inside-2_3591_231" fill="white">
<path d="M70.1087 79.2247C70.2269 79.3468 70.4635 79.469 70.5817 79.469C70.7 79.469 70.9364 79.3468 71.0547 79.2247C70.6999 79.1026 70.3452 79.2247 70.1087 79.2247Z"/>
</mask>
<path d="M70.1087 79.2247L69.3902 79.9203L67.7487 78.2247L70.1087 78.2247L70.1087 79.2247ZM71.0547 79.2247L71.3802 78.2792L72.8665 78.7909L71.7731 79.9203L71.0547 79.2247ZM70.8271 78.5291C70.8024 78.5035 70.7879 78.4942 70.7916 78.4968C70.7933 78.498 70.7984 78.5012 70.804 78.5041C70.8109 78.5076 70.8059 78.5043 70.7868 78.498C70.7766 78.4946 70.7563 78.4884 70.7271 78.4826C70.6999 78.4772 70.6491 78.469 70.5817 78.469L70.5817 80.469C70.2721 80.469 70.0048 80.3423 69.8864 80.2811C69.7343 80.2026 69.547 80.0822 69.3902 79.9203L70.8271 78.5291ZM70.5817 78.469C70.5143 78.469 70.4636 78.4772 70.4363 78.4826C70.4071 78.4884 70.3868 78.4946 70.3766 78.498C70.3575 78.5043 70.3525 78.5077 70.3593 78.5041C70.3649 78.5012 70.37 78.498 70.3717 78.4968C70.3754 78.4942 70.361 78.5035 70.3362 78.5291L71.7731 79.9203C71.6164 80.0822 71.4291 80.2026 71.2771 80.2811C71.1587 80.3423 70.8913 80.469 70.5817 80.469L70.5817 78.469ZM70.7291 80.1702C70.7464 80.1762 70.7328 80.1649 70.6308 80.1745C70.5746 80.1798 70.5285 80.1868 70.4377 80.1989C70.3667 80.2083 70.241 80.2247 70.1087 80.2247L70.1087 78.2247C70.0946 78.2247 70.102 78.2259 70.1751 78.2162C70.2284 78.2091 70.3375 78.1933 70.4439 78.1833C70.6671 78.1623 71.0083 78.1511 71.3802 78.2792L70.7291 80.1702Z" fill="#510228" mask="url(#path-12-inside-2_3591_231)"/>
</svg>
